<?xml version="1.0" encoding="utf-8"?>
<!-- Generator: Adobe Illustrator 12.0.1, SVG Export Plug-In . SVG Version: 6.00 Build 51448)  -->
<!DOCTYPE svg PUBLIC "-//W3C//DTD SVG 1.1//EN" "http://www.w3.org/Graphics/SVG/1.1/DTD/svg11.dtd" [
	<!ENTITY ns_svg "http://www.w3.org/2000/svg">
	<!ENTITY ns_xlink "http://www.w3.org/1999/xlink">
]>
<svg  version="1.1" xmlns="&ns_svg;" xmlns:xlink="&ns_xlink;" width="432" height="360" viewBox="0 0 432 360"
	 overflow="visible" enable-background="new 0 0 432 360" xml:space="preserve">
<g id="Layer_3">
	<rect fill="#FFFFFF" width="432" height="360"/>
</g>
<g id="Layer_1">
	<circle fill="#C4E8F4" stroke="#000000" cx="213.667" cy="174.333" r="111.667"/>
	<circle fill="#BCBEC0" stroke="#000000" cx="213.666" cy="174.334" r="53"/>
	<text transform="matrix(1 0 0 1 110.6602 204.334)"><tspan x="0" y="0" font-family="'MyriadPro-Regular'" font-size="12">Secondary</tspan><tspan x="18.726" y="14.4" font-family="'MyriadPro-Regular'" font-size="12">OC</tspan></text>
	<text transform="matrix(1 0 0 1 240.834 98.167)" font-family="'MyriadPro-Regular'" font-size="12">S(IV)</text>
	<text transform="matrix(1 0 0 1 263.667 135.667)"><tspan x="0" y="0" font-family="'MyriadPro-Regular'" font-size="12">H ,SO42 ,</tspan><tspan x="0" y="14.4" font-family="'MyriadPro-Regular'" font-size="12">HSO4,H2SO4</tspan></text>
	<text transform="matrix(1 0 0 1 89.667 114.3335)" font-family="'MyriadPro-Regular'" font-size="12">HCl</text>
	<text transform="matrix(1 0 0 1 342.7871 187)" font-family="'MyriadPro-Regular'" font-size="12">NH3</text>
	<text transform="matrix(1 0 0 1 391.7969 179.666)"><tspan x="0" y="0" font-family="'MyriadPro-Regular'" font-size="12">NH3</tspan><tspan x="-14.826" y="14.4" font-family="'MyriadPro-Regular'" font-size="12">Emissions</tspan></text>
	<text transform="matrix(1 0 0 1 311 273.666)" font-family="'MyriadPro-Regular'" font-size="12">HNO3</text>
	<text transform="matrix(1 0 0 1 342.3857 294.667)"><tspan x="0" y="0" font-family="'MyriadPro-Regular'" font-size="12">Gas-Phase</tspan><tspan x="-13.896" y="14.4" font-family="'MyriadPro-Regular'" font-size="12">Photochemistry</tspan></text>
	<text transform="matrix(1 0 0 1 370.25 91.75)"><tspan x="0" y="0" font-family="'MyriadPro-Regular'" font-size="12">Primary</tspan><tspan x="0" y="14.4" font-family="'MyriadPro-Regular'" font-size="12">H2SO4</tspan></text>
	<text transform="matrix(1 0 0 1 341.2188 56.8335)"><tspan x="0" y="0" font-family="'MyriadPro-Regular'" font-size="12">Gas-Phase</tspan><tspan x="-13.896" y="14.4" font-family="'MyriadPro-Regular'" font-size="12">Photochemistry</tspan></text>
	<text transform="matrix(1 0 0 1 276.834 30.167)" font-family="'MyriadPro-Regular'" font-size="12">SO2 Emissions</text>
	<text transform="matrix(1 0 0 1 202.3335 37.8335)" font-family="'MyriadPro-Regular'" font-size="12">H2O</text>
	<text transform="matrix(1 0 0 1 23.6592 29.334)"><tspan x="0" y="0" font-family="'MyriadPro-Regular'" font-size="12">Combustion Process Emissions</tspan><tspan x="37.673" y="14.4" font-family="'MyriadPro-Regular'" font-size="12">primary OC - EC</tspan></text>
	<text transform="matrix(1 0 0 1 38.1924 104.666)"><tspan x="0" y="0" font-family="'MyriadPro-Regular'" font-size="12">HCl</tspan><tspan x="-15.762" y="14.4" font-family="'MyriadPro-Regular'" font-size="12">emissions</tspan></text>
	<text transform="matrix(1 0 0 1 42.5503 161.667)"><tspan x="0" y="0" font-family="'MyriadPro-Regular'" font-size="12">Sea-Salt</tspan><tspan x="-4.566" y="14.4" font-family="'MyriadPro-Regular'" font-size="12">Emissions</tspan></text>
	<text transform="matrix(1 0 0 1 32.394 204)"><tspan x="0" y="0" font-family="'MyriadPro-Regular'" font-size="12">Condensible</tspan><tspan x="9.3" y="14.4" font-family="'MyriadPro-Regular'" font-size="12">Organics</tspan></text>
	<text transform="matrix(1 0 0 1 40.0518 254.5)"><tspan x="0" y="0" font-family="'MyriadPro-Regular'" font-size="12">Gas-Phase</tspan><tspan x="-13.896" y="14.4" font-family="'MyriadPro-Regular'" font-size="12">Photochemistry</tspan></text>
	<text transform="matrix(1 0 0 1 62.7959 301.667)"><tspan x="0" y="0" font-family="'MyriadPro-Regular'" font-size="12">Gaseous Organics</tspan><tspan x="20.022" y="14.4" font-family="'MyriadPro-Regular'" font-size="12">Emissions</tspan></text>
	<text transform="matrix(1 0 0 1 174.5 147)" font-family="'MyriadPro-Regular'" font-size="12">primary OC - EC</text>
	<text transform="matrix(1 0 0 1 153.5542 333.667)" font-family="'MyriadPro-Regular'" font-size="12">Dust, Fly Ash Emissions</text>
	<g>
		<text transform="matrix(1 0 0 1 307.085 330.167)"><tspan x="0" y="0" font-family="'MyriadPro-Regular'" font-size="12">NO</tspan><tspan x="-16.434" y="14.4" font-family="'MyriadPro-Regular'" font-size="12">Emissions</tspan></text>
		<text transform="matrix(1 0 0 1 323.5 331.666)" font-family="'Myriad-Roman'" font-size="8">x</text>
	</g>
	<g>
		<text transform="matrix(1 0 0 1 121 153.8335)" font-family="'MyriadPro-Regular'" font-size="12">Na</text>
		<text transform="matrix(1 0 0 1 134.333 148.0005)" font-family="'Myriad-Roman'" font-size="6">+</text>
	</g>
	<text transform="matrix(1 0 0 1 271.2266 129.853)" font-family="'Myriad-Roman'" font-size="6">+</text>
	<g>
		<text transform="matrix(1 0 0 1 272.3867 192.334)" font-family="'MyriadPro-Regular'" font-size="12">NH4,OH</text>
		<text transform="matrix(1 0 0 1 288.666 185.3867)" font-family="'Myriad-Roman'" font-size="6">+</text>
		<text transform="matrix(1 0 0 1 311.9609 186.0273)" font-family="'Myriad-Roman'" font-size="6">-</text>
	</g>
	<text transform="matrix(1 0 0 1 300.3203 129.7202)" font-family="'Myriad-Roman'" font-size="6">-</text>
	<text transform="matrix(1 0 0 1 286.5195 143.0532)" font-family="'Myriad-Roman'" font-size="6">-</text>
	<g>
		<text transform="matrix(1 0 0 1 129.167 136.5)" font-family="'MyriadPro-Regular'" font-size="12">Cl</text>
		<text transform="matrix(1 0 0 1 140.3198 130.5259)" font-family="'Myriad-Roman'" font-size="6">-</text>
	</g>
	<g>
		<g>
			<line fill="none" stroke="#000000" x1="191" y1="216.167" x2="175" y2="234.5"/>
			<path d="M172.619,237.229c0.644-1.699,1.221-4.001,1.222-5.739l1.471,2.653l2.828,1.099
				C176.418,235.478,174.215,236.36,172.619,237.229z"/>
		</g>
	</g>
	<g>
		<g>
			<line fill="none" stroke="#000000" x1="312.396" y1="261.054" x2="290.396" y2="246.387"/>
			<path d="M287.383,244.378c1.768,0.419,4.125,0.694,5.849,0.471l-2.441,1.802l-0.724,2.945
				C289.609,247.919,288.449,245.849,287.383,244.378z"/>
		</g>
	</g>
	<g>
		<g>
			<line fill="none" stroke="#000000" x1="254" y1="102.5" x2="268.499" y2="121.275"/>
			<path d="M270.712,124.142c-1.541-0.962-3.687-1.976-5.392-2.315l2.889-0.927l1.627-2.561
				C269.733,120.074,270.171,122.407,270.712,124.142z"/>
		</g>
	</g>
	<g>
		<g>
			<line fill="none" stroke="#000000" x1="388.648" y1="179.5" x2="365.044" y2="181.887"/>
			<path d="M361.441,182.251c1.631-0.8,3.626-2.087,4.814-3.354l-0.739,2.942l1.313,2.735
				C365.411,183.569,363.199,182.709,361.441,182.251z"/>
		</g>
	</g>
	<g>
		<g>
			<line fill="none" stroke="#000000" x1="122.333" y1="51.667" x2="189.333" y2="135.333"/>
			<path d="M191.597,138.16c-1.558-0.935-3.721-1.911-5.432-2.219l2.872-0.978l1.582-2.588
				C190.546,134.111,191.025,136.436,191.597,138.16z"/>
		</g>
	</g>
	<g>
		<g>
			<g>
				<line fill="none" stroke="#000000" x1="93.871" y1="212.75" x2="113.621" y2="212.75"/>
				<path d="M117.242,212.75c-1.703,0.632-3.817,1.711-5.127,2.853l1.031-2.853l-1.031-2.853
					C113.425,211.039,115.539,212.118,117.242,212.75z"/>
			</g>
		</g>
		<g>
			<g>
				<line fill="none" stroke="#000000" x1="116.5" y1="209" x2="96.75" y2="209"/>
				<path d="M93.129,209c1.703-0.632,3.817-1.711,5.127-2.853L97.225,209l1.031,2.853C96.946,210.711,94.832,209.632,93.129,209z"/>
			</g>
		</g>
	</g>
	<g>
		<g>
			<g>
				<line fill="none" stroke="#000000" x1="107.449" y1="117.342" x2="124.553" y2="127.217"/>
				<path d="M127.689,129.027c-1.791-0.304-4.161-0.427-5.867-0.093l2.32-1.955l0.533-2.987
					C125.239,125.637,126.53,127.628,127.689,129.027z"/>
			</g>
		</g>
		<g>
			<g>
				<line fill="none" stroke="#000000" x1="128.921" y1="125.409" x2="111.817" y2="115.534"/>
				<path d="M108.682,113.723c1.791,0.304,4.161,0.427,5.867,0.093l-2.32,1.955l-0.533,2.987
					C111.132,117.114,109.841,115.122,108.682,113.723z"/>
			</g>
		</g>
	</g>
	<text transform="matrix(1 0 0 1 184.4707 203.5)"><tspan x="0" y="0" font-family="'Myriad-Roman'" font-size="12">Dust, fly ash</tspan><tspan x="13.361" y="14.4" font-family="'Myriad-Roman'" font-size="12">metals</tspan></text>
	<g>
		<g>
			<g>
				<line fill="none" stroke="#000000" x1="317.401" y1="188.229" x2="337.076" y2="186.508"/>
				<path d="M340.684,186.192c-1.642,0.778-3.654,2.037-4.859,3.289l0.779-2.933l-1.276-2.752
					C336.731,184.82,338.932,185.711,340.684,186.192z"/>
			</g>
		</g>
		<g>
			<g>
				<line fill="none" stroke="#000000" x1="339.617" y1="182.521" x2="319.942" y2="184.242"/>
				<path d="M316.335,184.558c1.642-0.778,3.654-2.037,4.859-3.288l-0.779,2.932l1.276,2.752
					C320.287,185.93,318.087,185.039,316.335,184.558z"/>
			</g>
		</g>
	</g>
	<g>
		<g>
			<line fill="none" stroke="#000000" x1="88.833" y1="161.833" x2="116" y2="151.5"/>
			<path d="M119.384,150.212c-1.367,1.197-2.959,2.957-3.778,4.49l-0.05-3.033l-1.979-2.3
				C115.208,149.97,117.568,150.227,119.384,150.212z"/>
		</g>
	</g>
	<g>
		<g>
			<line fill="none" stroke="#000000" x1="63.833" y1="102.833" x2="88" y2="110"/>
			<path d="M91.472,111.029c-1.813,0.122-4.146,0.555-5.727,1.277l1.8-2.441l-0.178-3.029
				C88.298,108.304,90.019,109.939,91.472,111.029z"/>
		</g>
	</g>
	<g>
		<g>
			<line fill="none" stroke="#000000" x1="211.745" y1="45.376" x2="211.745" y2="85.626"/>
			<path d="M211.745,89.248c-0.632-1.703-1.711-3.817-2.853-5.127l2.853,1.032l2.853-1.032
				C213.456,85.43,212.377,87.544,211.745,89.248z"/>
		</g>
	</g>
	<g>
		<g>
			<line fill="none" stroke="#000000" x1="368.052" y1="94.042" x2="344.551" y2="94.042"/>
			<path d="M340.93,94.042c1.703-0.632,3.817-1.711,5.128-2.853l-1.032,2.853l1.032,2.853
				C344.747,95.753,342.633,94.674,340.93,94.042z"/>
		</g>
	</g>
	<g>
		<g>
			<line fill="none" stroke="#000000" x1="348.833" y1="74.833" x2="337" y2="85.5"/>
			<path d="M334.311,87.924c0.842-1.61,1.689-3.827,1.898-5.552l1.144,2.81l2.677,1.428
				C338.291,86.639,335.999,87.253,334.311,87.924z"/>
		</g>
	</g>
	<g>
		<g>
			<line fill="none" stroke="#000000" x1="320.334" y1="33.833" x2="337" y2="54.5"/>
			<path d="M339.273,57.319c-1.562-0.929-3.729-1.897-5.439-2.201l2.868-0.988l1.573-2.594
				C338.209,53.273,338.695,55.596,339.273,57.319z"/>
		</g>
	</g>
	<text transform="matrix(1 0 0 1 309 98.5)" font-family="'MyriadPro-Regular'" font-size="12">H2SO4</text>
	<g>
		<g>
			<line fill="none" stroke="#000000" x1="314.833" y1="104.833" x2="295.234" y2="122.5"/>
			<path d="M292.545,124.924c0.842-1.61,1.689-3.827,1.898-5.552l1.144,2.81l2.677,1.428
				C296.525,123.64,294.233,124.253,292.545,124.924z"/>
		</g>
	</g>
	<g>
		<g>
			<line fill="none" stroke="#000000" x1="216.078" y1="318.96" x2="216.078" y2="222.043"/>
			<path d="M216.078,218.422c0.633,1.703,1.711,3.817,2.854,5.128l-2.854-1.032l-2.853,1.032
				C214.367,222.239,215.447,220.125,216.078,218.422z"/>
		</g>
	</g>
	<g>
		<text transform="matrix(1 0 0 1 258.334 242.334)" font-family="'MyriadPro-Regular'" font-size="12">NO3,H</text>
		<text transform="matrix(1 0 0 1 275.5459 235.4141)" font-family="'Myriad-Roman'" font-size="6">-</text>
		<text transform="matrix(1 0 0 1 288.9473 235.3613)" font-family="'Myriad-Roman'" font-size="6">+</text>
	</g>
	<g>
		<text transform="matrix(1 0 0 1 153.6665 248.2803)"><tspan x="0" y="0" font-family="'MyriadPro-Regular'" font-size="12">Ca2 ,Mg2 ,</tspan><tspan x="0" y="14.4" font-family="'MyriadPro-Regular'" font-size="12">Fe3 , etc.</tspan></text>
		<text transform="matrix(1 0 0 1 169.9995 242)" font-family="'Myriad-Roman'" font-size="6">+</text>
		<text transform="matrix(1 0 0 1 196.3198 242.0527)" font-family="'Myriad-Roman'" font-size="6">-</text>
		<text transform="matrix(1 0 0 1 169.6655 257)" font-family="'Myriad-Roman'" font-size="6">+</text>
	</g>
	<g>
		<g>
			<line fill="none" stroke="#000000" x1="339.333" y1="290.165" x2="331" y2="279.665"/>
			<path d="M328.749,276.829c1.554,0.94,3.713,1.926,5.422,2.242l-2.876,0.966l-1.593,2.581
				C329.782,280.883,329.312,278.556,328.749,276.829z"/>
		</g>
	</g>
	<g>
		<g>
			<line fill="none" stroke="#000000" x1="336.667" y1="334.832" x2="355.667" y2="316.332"/>
			<path d="M358.262,313.806c-0.779,1.642-1.542,3.889-1.684,5.621l-1.251-2.764l-2.729-1.324
				C354.333,315.243,356.601,314.541,358.262,313.806z"/>
		</g>
	</g>
	<g>
		<g>
			<line fill="none" stroke="#000000" x1="99.333" y1="290.831" x2="80.499" y2="272.273"/>
			<path d="M77.919,269.732c1.657,0.745,3.92,1.46,5.655,1.566l-2.737,1.308l-1.267,2.757
				C79.438,273.63,78.689,271.378,77.919,269.732z"/>
		</g>
	</g>
	<g>
		<g>
			<line fill="none" stroke="#000000" x1="63.745" y1="244.29" x2="63.745" y2="224.54"/>
			<path d="M63.745,220.919c0.632,1.703,1.711,3.817,2.853,5.128l-2.853-1.032l-2.853,1.032
				C62.034,224.736,63.113,222.622,63.745,220.919z"/>
		</g>
	</g>
</g>
<g id="Layer_2">
	<text transform="matrix(1 0 0 1 25 351)" font-family="'Myriad-Italic'" font-size="12">From Wexler and Pandis (1995)</text>
</g>
</svg>
